<?xml version="1.0" standalone="no"?>
<!DOCTYPE svg PUBLIC "-//W3C//DTD SVG 1.1//EN" "http://www.w3.org/Graphics/SVG/1.1/DTD/svg11.dtd" >
<svg xmlns="http://www.w3.org/2000/svg">
<metadata></metadata>
<defs>
<font id="emirates_smmedium" horiz-adv-x="1050" >
<font-face units-per-em="2048" ascent="1638" descent="-410" />
<missing-glyph horiz-adv-x="512" />
<glyph horiz-adv-x="2048" />
<glyph horiz-adv-x="2048" />
<glyph unicode="&#xd;" horiz-adv-x="681" />
<glyph unicode=" "  horiz-adv-x="512" />
<glyph unicode="&#x09;" horiz-adv-x="512" />
<glyph unicode="&#xa0;" horiz-adv-x="512" />
<glyph unicode="!" horiz-adv-x="575" d="M164 100q0 53 37 86q39 35 88 35t88 -35q35 -35 35 -86t-37 -86q-35 -35 -86 -34q-49 0 -88 34q-37 35 -37 86zM182 1341q-2 43 33 72t76 29t74 -31q34 -29 30 -70l-65 -1003h-88z" />
<glyph unicode="&#x22;" horiz-adv-x="690" d="M90 1380q0 33 27.5 57.5t68.5 24.5q39 0 68 -24.5t29 -57.5l-47 -436h-101q-45 434 -45 436zM408 1380q0 33 27.5 57.5t68.5 24.5q39 0 67.5 -24.5t28.5 -57.5l-47 -436h-100q-45 434 -45 436z" />
<glyph unicode="#" horiz-adv-x="1134" d="M63 418v117h222l65 378h-231v113h256l71 440h115l-74 -440h254l80 440h113l-74 -440h215v-113h-235l-68 -378h246v-117h-266l-74 -418h-113l74 418h-260l-74 -418h-112l73 418h-203zM399 535h260l64 378h-256z" />
<glyph unicode="$" horiz-adv-x="1105" d="M100 86v168q125 -154 320 -154q39 0 72 4v568q-381 193 -388 487q-4 135 132 227q111 78 256 89v92h116v-92q166 -14 305 -107v-166q-72 84 -116 117q-82 53 -189 59v-495q393 -227 393 -455q0 -164 -113.5 -277.5t-279.5 -150.5v-113h-116v113q-29 0 -23 0 q-219 -10 -369 86zM313 1198q0 -125 179 -242v416q-178 -29 -179 -174zM608 133q199 88 180 252q-14 96 -88 160q-29 25 -92 57v-469z" />
<glyph unicode="%" horiz-adv-x="1394" d="M111 1139q0 150 79 250q78 94 189 94q115 0 190 -80q84 -92 84 -260q0 -150 -82 -250t-192 -100q-117 0 -189 84q-80 92 -79 262zM211 0l836 1462h198l-835 -1462h-199zM252 1147q0 -129 39 -199q33 -63 88 -63q125 0 125 264q0 125 -39 192q-33 59 -86 60 q-55 0 -91 -65.5t-36 -188.5zM809 334q0 150 80 250q80 94 190 94q115 0 189 -80q84 -92 84 -260q0 -150 -82 -250t-191 -100q-117 0 -190 84q-80 92 -80 262zM950 340q0 -127 39 -199q33 -63 88 -63q125 0 125 264q0 125 -37 193q-35 59 -88 59q-55 0 -91 -65.5t-36 -188.5 z" />
<glyph unicode="&#x26;" horiz-adv-x="1357" d="M117 340q0 133 94 278q74 111 162 177l63 45q-127 203 -127 356q0 129 85 208t216 79q115 0 194 -65.5t79 -176.5q0 -117 -135 -258q-53 -57 -119 -111l340 -538q133 174 211 422l80 -127q-90 -236 -232 -389l152 -240h-213l-74 117q-203 -150 -412 -137 q-203 12 -305 165q-59 86 -59 195zM313 424q0 -88 52 -170q75 -127 237 -127q119 0 232 82l-351 551q-170 -150 -170 -336zM463 1239q0 -100 82 -231l33 -56q53 39 71 56q109 109 109 239q0 70 -39 116t-105 46q-68 0 -109.5 -50t-41.5 -120z" />
<glyph unicode="'" horiz-adv-x="415" d="M143 1380q0 33 28 57.5t69 24.5t68.5 -24.5t27.5 -57.5l-47 -436h-101q-45 434 -45 436z" />
<glyph unicode="(" horiz-adv-x="688" d="M156 580q8 190 39 356q74 403 264 635h73q-195 -428 -210 -985q4 -164 26 -324q53 -383 184 -696h-69q-285 365 -307 1014z" />
<glyph unicode=")" horiz-adv-x="557" d="M90 -434q195 461 211 1022q-4 164 -27 319q-53 379 -184 668h74q281 -344 303 -993q-8 -188 -39 -361q-76 -408 -268 -655h-70z" />
<glyph unicode="*" horiz-adv-x="937" d="M197 1026q0 43 51 68q29 12 106 30q70 18 90 33q-25 14 -96 33q-74 20 -100 35q-47 25 -47 63q0 47 43 47q39 0 82 -35l71 -71q39 -41 60 -47q0 39 -19.5 103.5t-19.5 100.5q0 33 15.5 54.5t37.5 21.5q25 0 40 -20.5t15 -57.5q0 -31 -21.5 -99t-21.5 -103q27 8 66 47 q59 63 65 69q41 35 78 35q23 0 38 -13t15 -32q0 -41 -45 -63q-27 -14 -101 -33t-103 -35q47 -23 131 -43q66 -16 90 -39q27 -27 26 -51q0 -18 -14 -32.5t-33 -14.5q-33 0 -75 33q-25 16 -72 65q-45 43 -66 55q0 -35 19.5 -111.5t19.5 -98.5q0 -29 -16.5 -50.5t-38.5 -21.5 q-20 0 -36.5 20.5t-16.5 46.5q0 35 21.5 106t21.5 109q-29 -14 -68 -55q-51 -53 -65 -63q-37 -31 -72 -31q-25 0 -40 12.5t-15 32.5z" />
<glyph unicode="+" horiz-adv-x="1171" d="M90 512v137h430v426h131v-426h432v-137h-432v-426h-131v426h-430z" />
<glyph unicode="," horiz-adv-x="550" d="M164 123q0 49 37 88q37 35 82 35q61 0 110 -39q72 -55 72 -180q0 -72 -51 -150q-41 -66 -105 -119q-57 -47 -96 -61l-20 43q98 63 147 139q37 57 37 101q0 16 -9.5 23t-21.5 7q-6 0 -21.5 -4t-33.5 -4q-47 0 -86 29q-41 35 -41 92z" />
<glyph unicode="-" horiz-adv-x="655" d="M82 614v125h493v-125h-493z" />
<glyph unicode="." horiz-adv-x="540" d="M164 115q0 47 33.5 79.5t83.5 32.5q47 0 80.5 -32.5t33.5 -79.5t-33.5 -81t-80.5 -34q-49 0 -83 34t-34 81z" />
<glyph unicode="/" horiz-adv-x="720" d="M-27 -434l555 2007h191l-555 -2007h-191z" />
<glyph unicode="0" horiz-adv-x="1185" d="M123 727q0 336 136 546t351 210q211 0 342 -187q143 -201 144 -569q0 -313 -142.5 -530t-343.5 -217q-211 0 -344 186q-143 203 -143 561zM336 745q0 -344 98 -524q78 -137 174 -137t172 135q100 182 101 539q0 303 -88 479q-72 152 -179 152q-113 0 -188 -156 q-90 -178 -90 -488z" />
<glyph unicode="1" horiz-adv-x="831" d="M113 1243v98q164 14 333 82q70 29 136 66v-1489h-207v1290z" />
<glyph unicode="2" d="M61 0q111 244 420 713q246 371 254 485q4 100 -51 149.5t-162 38.5q-57 -10 -106 -30q-125 -57 -209 -170v178q160 109 358 119q186 0 287 -84q94 -82 92 -221q-4 -117 -221 -455q-295 -458 -371 -612h254q244 0 328 51v-162h-873z" />
<glyph unicode="3" horiz-adv-x="1007" d="M123 47v201q106 -147 258 -162q156 -18 259 86t103 252q0 160 -122 276q-141 137 -410 168q14 23 336 486h-74q-256 0 -323 -39v147h641l-316 -422q213 -57 326 -211q104 -137 104 -313q0 -199 -119 -350q-125 -160 -327 -182q-31 -4 -62 -4q-96 0 -190 30q-74 23 -84 37 z" />
<glyph unicode="4" horiz-adv-x="1116" d="M41 403q94 233 258 576q70 143 145 295q74 160 86 188h116.5h113.5q-313 -604 -463 -944h346v389h191v-389h188v-127q-41 12 -186 12h-2v-403h-191v395v11z" />
<glyph unicode="5" horiz-adv-x="1024" d="M123 47v205q33 -51 98 -102q82 -63 160 -66q152 -10 254 94q94 100 94 242q0 168 -131 289q-154 139 -440 161v592h620v-153q-102 41 -325 41h-172v-281q303 -27 467 -199q147 -152 147 -366q0 -195 -119 -342q-124 -153 -327 -178q-33 -4 -64 -4q-92 0 -182 30 q-66 23 -80 37z" />
<glyph unicode="6" horiz-adv-x="1146" d="M123 664q0 293 125 530q150 289 420 289q141 0 227 -62v-155q-106 123 -221 123q-127 0 -218 -151t-104 -378q45 178 295 195q172 0 289 -156t117 -391q0 -236 -125 -382t-312 -146q-256 0 -385 206q-109 178 -108 478zM342 510q0 -178 76 -303t184 -125q111 0 186.5 124 t75.5 304q0 178 -75.5 302t-186.5 124t-185.5 -124t-74.5 -302z" />
<glyph unicode="7" horiz-adv-x="974" d="M123 1309v153h803q-297 -463 -543 -1462h-219q70 276 145 512q180 567 350 838h-256q-209 0 -280 -41z" />
<glyph unicode="8" horiz-adv-x="1099" d="M123 416v2q0 4 2 10l2 21q0 4 2 10l4 18q0 4 2 8l2 9q0 4 2 10q0 2 2 8l33 78l64 92l112 109l33 24q2 2 6 4l12 10q4 2 7 5l-19 14q-2 2 -6 4l-80 78l-33 45l-37 74l-10 34q0 4 -2 9l-6 55v2v25l2 30q0 4 2 8l14 54l17 39q2 2 4 6l27 41l45 45l51 37l61 26l82 19l29 4 l88 -2l74 -15q4 0 8 -2t10 -2l76 -35l8 -4l43 -34l27 -29l12 -21q2 -2 4 -6l12 -22q2 -4 2 -8q2 -2 5 -9l12 -43l2 -8q0 -4 2 -10v-10l2 -43l-4 -19q0 -4 -2 -10q0 -4 -2 -8l-10 -33l-17 -31q-2 -2 -4 -6l-66 -80l-112 -88l-4 -2l2 -2l96 -59l25 -19q2 -2 6 -4l74 -71 l67 -89l23 -45l4 -8q0 -2 2 -6l22 -68l4 -16q2 -6 2 -10l5 -29q2 -4 2 -10l2 -21v-53v-2l-4 -39q-2 -4 -3 -10l-4 -18q0 -4 -2 -9l-6 -18q0 -4 -2 -8l-20 -56l-39 -63l-39 -49l-68 -55l-18 -15l-8 -4l-60 -29q-2 -2 -8 -4q-2 0 -6 -2l-59 -18l-29 -4q-4 -2 -10 -2 q-4 -2 -11 -2l-116 -6l-86 12l-45 12q-4 0 -9 2l-16 6q-4 2 -8 2l-8 4q-2 2 -9 2l-22 13q-2 0 -6 4l-74 47l-59 63l-23 33l-4 8l-25 54l-10 34q0 2 -2 9l-6 28zM262 395l2 -28l2 -9v-8l15 -47l6 -14l4 -8l24 -45l31 -39l16 -17q2 -2 5 -4q4 -2 6 -4q2 -4 6 -6l35 -25l53 -28 l22 -7q4 -2 9 -2l16 -4q4 -2 8 -2l47 -4l47 2l56 15l55 26l47 35l37 35l8 12q2 2 4 6l21 31l20 49l4 17q0 4 2 8l2 28v29v10q0 4 -2 9v10l-12 49l-24 57l-33 47l-39 43l-10 11l-4 4l-140 96l-112 57l-78 -53l-82 -84l-37 -63l-29 -82q0 -4 -2 -9q0 -4 -2 -10zM379 1190 l4 -29l12 -35l17 -26l2 -4l4 -4l12 -15l2 -4l4 -2l10 -10l3 -4l8 -6q2 -2 4 -2q0 -2 2 -5l8 -6l4 -2l4 -4l113 -69l18 -9l4 -2l19 11q2 0 4 2l25 16l4 2l12 8l2 4l4 2l4 4l8 5l4 4l5 2l4 4l4 2l20 20l4 2l2 4l35 41l27 48l8 26l2 25l-2 33l-6 34l-15 39l-4 4q0 2 -2 4 q0 2 -2 5l-6 8l-2 2l-4 4l-6 8l-4 2l-2 4l-15 12l-4 5q-2 0 -4 2l-4 2l-33 16l-47 14l-47 7l-47 -3l-45 -10l-29 -10l-26 -14l-23 -19l-26 -35l-9 -12q0 -2 -2 -4l-8 -25l-8 -34v-33z" />
<glyph unicode="9" horiz-adv-x="1120" d="M123 944q0 248 126 392.5t322 144.5q184 0 306 -133q170 -193 170 -629q0 -311 -152 -522q-160 -217 -408 -217q-147 0 -249 81v181q109 -162 251 -162q133 0 228.5 143.5t107.5 362.5q-35 -59 -102 -111q-90 -68 -188 -67q-182 0 -297 146t-115 390zM309 965 q0 -184 77 -313.5t183 -129.5q109 0 185.5 129t76.5 314q0 182 -76.5 307t-185.5 125t-184.5 -125t-75.5 -307z" />
<glyph unicode=":" horiz-adv-x="552" d="M164 119q0 47 33.5 79.5t83.5 32.5q47 0 80.5 -32.5t33.5 -79.5t-33.5 -81t-80.5 -34q-49 0 -83 34t-34 81zM164 887q0 47 33.5 79.5t83.5 32.5q47 0 80.5 -32.5t33.5 -79.5t-33.5 -81t-80.5 -34q-49 0 -83 34t-34 81z" />
<glyph unicode=";" horiz-adv-x="606" d="M164 123q0 49 37 88q37 35 82 35q61 0 110 -39q72 -55 72 -180q0 -72 -51 -150q-41 -66 -105 -119q-57 -47 -96 -61l-20 43q98 63 147 139q37 57 37 101q0 16 -9.5 23t-21.5 7q-6 0 -21.5 -4t-33.5 -4q-47 0 -86 29q-41 35 -41 92zM164 905q0 47 33.5 80t83.5 33 q47 0 80.5 -33t33.5 -80t-33.5 -80.5t-80.5 -33.5q-49 0 -83 33.5t-34 80.5z" />
<glyph unicode="&#x3c;" horiz-adv-x="1060" d="M86 621l897 501v-127l-670 -374l670 -375v-123z" />
<glyph unicode="=" horiz-adv-x="1007" d="M90 754v100h840v-100h-840zM92 420v100h840v-100h-840z" />
<glyph unicode="&#x3e;" horiz-adv-x="1011" d="M86 999v123l897 -497l-895 -502v127l670 377z" />
<glyph unicode="?" horiz-adv-x="1003" d="M143 1217v165q119 123 316 150q211 20 348 -109q129 -127 106 -313q-25 -205 -229 -369q-193 -160 -170 -383l-111 -2q-20 190 7 303q39 166 186 285t131 270q-8 98 -82 161t-178 59q-68 -12 -123 -37q-133 -61 -201 -180zM346 117q0 -47 35 -82t84 -35q51 0 87 35t36 82 q0 49 -36 82.5t-87 33.5q-49 0 -84 -33.5t-35 -82.5z" />
<glyph unicode="@" horiz-adv-x="1869" d="M74 340q0 80 12 164q53 397 328 675.5t637 278.5q293 0 487.5 -220t194.5 -546q0 -78 -13 -157q-49 -303 -211 -441q-111 -94 -235 -94q-209 0 -252 186q-23 -63 -102 -120q-96 -66 -205 -66q-266 0 -266 340q0 246 153 442q158 209 375 209q145 0 199 -114l22 79h150 l-162 -659q-12 -47 -12 -84q0 -135 104 -135q162 0 258 217q78 178 78 371q0 303 -158 510q-166 213 -418 213q-293 0 -536.5 -261.5t-288.5 -619.5q-12 -80 -12 -158q0 -313 155 -506q160 -207 443 -206q252 0 540 256v-97q-258 -233 -569 -233q-317 0 -510 223 q-186 215 -186 553zM635 336q0 -244 121 -244q115 0 220 204t105 437q0 176 -112 176q-117 0 -224 -178q-111 -184 -110 -395z" />
<glyph unicode="A" horiz-adv-x="1259" d="M0 0v14q0 73 37 183l350 1032q39 115 39 172q0 35 -12 61h161q63 -39 136 -221l399 -1022q55 -141 131 -219h-217q-53 47 -113 201l-141 362h-455l-127 -370q-28 -81 -28 -147q0 -24 6 -46h-166zM348 670h381l-215 563q2 -15 2 -29q0 -44 -14 -86q-147 -434 -154 -448z " />
<glyph unicode="B" horiz-adv-x="1185" d="M102 1462h492q182 0 303 -73q145 -88 145 -261q0 -109 -59 -192q-66 -90 -168 -102q107 -27 189 -101q121 -106 120 -276q0 -219 -131 -338t-352 -119h-424q-33 31 -47 139q-8 66 -8 97v1003q-4 174 -60 223zM346 1380q20 -45 21 -139v-350h286q96 0 150 74q47 66 47 163 q0 109 -61.5 180.5t-167.5 71.5h-275zM367 236q0 -88 20 -144h178q358 0 359 389q0 137 -76 228q-82 98 -215 98h-266v-571z" />
<glyph unicode="C" horiz-adv-x="1148" d="M61 684q0 324 179 551q195 248 510 248q156 0 260 -35q74 -25 75 -39v-168q-88 154 -282 154q-244 0 -391 -230q-129 -201 -129 -460q0 -258 137 -435q147 -190 397 -190q182 0 268 147l-2 -180q-91 -67 -333 -67h-7q-299 0 -490.5 201.5t-191.5 502.5z" />
<glyph unicode="D" horiz-adv-x="1325" d="M111 1462h475q309 0 493 -217q174 -207 174 -520q0 -297 -184 -506q-193 -219 -485 -219h-361q-53 53 -53 233v1006q-6 174 -59 223zM356 1376q18 -90 19 -137v-1006q0 -98 20 -151h191q215 0 342 233q104 193 104 424q0 256 -121 437q-134 200 -366 200h-2h-187z" />
<glyph unicode="E" horiz-adv-x="1095" d="M98 1462h541q340 0 383 -205q-74 96 -387 97h-283q10 -53 10 -113v-313h199q219 0 287 -158q-61 43 -322 43h-164v-580q0 -66 13 -120h420q209 0 260 82q0 -195 -221 -195h-623q-53 53 -53 233v1008q-6 174 -60 221z" />
<glyph unicode="F" horiz-adv-x="946" d="M94 1462h543q336 0 383 -207q-74 94 -387 95h-287q12 -80 12 -111v-313h199q219 0 287 -156q-63 41 -322 41h-164v-578q0 -182 52 -233h-201q-33 31 -47 139q-8 66 -8 94v1006q-4 174 -60 223z" />
<glyph unicode="G" horiz-adv-x="1269" d="M61 719q0 309 187 530q197 234 497 234h5q205 -2 346 -68v-174q-18 43 -66 82q-102 84 -260 84q-233 0 -373 -244q-115 -201 -114 -454q0 -428 319 -576q102 -47 201 -47q102 0 180 61v439q0 120 -29 243h234v-710q-164 -139 -432 -139q-330 0 -516 206 q-178 201 -179 533z" />
<glyph unicode="H" horiz-adv-x="1353" d="M106 1462h207q45 -41 60 -223v-338h624v338q-2 174 -59 223h205q59 -49 59 -223v-1003q0 -176 55 -236h-206q-31 33 -43 139q-10 92 -11 97v548h-624v-548q0 -180 53 -236h-205q-53 57 -53 236v1003q0 168 -62 223z" />
<glyph unicode="I" horiz-adv-x="512" d="M123 1462h205q53 -47 59 -223v-1003q0 -178 53 -236h-204q-53 57 -54 236v1003q-6 174 -59 223z" />
<glyph unicode="J" horiz-adv-x="899" d="M39 74v227q33 -80 116 -141.5t167 -61.5q111 0 161 31q109 66 109 266v844q0 172 -57 223h202q59 -59 60 -223v-868q0 -166 -113 -278.5t-281 -112.5q-88 0 -190 22q-129 27 -174 72z" />
<glyph unicode="K" horiz-adv-x="1206" d="M106 1462h201q39 -33 53 -133q10 -70 11 -90v-664q57 303 288 601q154 197 226 286h198l-467 -577q-37 -51 -51 -72q147 -35 238 -170q33 -49 94 -174q186 -377 328 -469h-242q-41 18 -102 113q-27 31 -60 90q-131 246 -198 395q-39 86 -103 141q-139 -233 -149 -422 q-1 -28 -1 -48.5t1 -32.5q2 -182 51 -236h-201q-35 35 -47 139q-8 66 -8 97v1003q-4 174 -60 223z" />
<glyph unicode="L" horiz-adv-x="1007" d="M113 1462h204q59 -53 60 -223v-1003q0 -66 10 -115h412q160 0 233 82q-8 -129 -114 -178q-53 -25 -109 -25h-584q-53 57 -53 236v1003q-6 174 -59 223z" />
<glyph unicode="M" horiz-adv-x="1546" d="M96 1460h248q96 -41 141 -192l289 -983q14 248 78 448q31 96 125 303q80 176 100 277q10 51 10 86q0 44 -16 63h242q49 -45 49 -227v-1008q0 -182 74 -227h-211q-53 47 -54 227v979q0 26 -10 92q-31 -322 -184 -710q-145 -371 -146 -465q0 -70 31 -123h-194l-322 1104 q-56 190 -79 190h-1q33 -109 33 -393v-674q0 -182 55 -227h-178q-18 45 -18 227v977q0 39 -8 105q-14 115 -54 151z" />
<glyph unicode="N" horiz-adv-x="1275" d="M143 1462h252q74 -33 150 -192l360 -758q82 -172 133 -246q-32 167 -32 363v12v594q0 180 -58 227h178q20 -45 21 -227v-979q0 -199 27 -256h-201q-98 125 -187 313q-367 778 -419 876.5t-62 106.5q41 -106 41 -368v-713q0 -168 57 -215h-184q-20 125 -20 215l2 993 q0 199 -58 254z" />
<glyph unicode="O" horiz-adv-x="1423" d="M57 729q0 291 179 514q190 240 471 240q293 0 483 -236q176 -219 176 -518q0 -315 -168 -524q-182 -225 -491 -225q-305 0 -486 227q-164 209 -164 522zM279 727q0 -240 98 -422q121 -225 342 -225q215 0 334 227q94 180 94 420q0 238 -94 422q-119 233 -334 233 q-219 0 -342 -231q-98 -186 -98 -424z" />
<glyph unicode="P" horiz-adv-x="1144" d="M102 1462h519q219 0 350 -102q143 -113 143 -326q0 -205 -134 -324.5t-343 -119.5h-268v-354q0 -178 53 -236h-205q-53 57 -53 236v1003q0 168 -62 223zM352 1370q16 -55 17 -131v-549h221q147 0 229 109q74 96 74 248q0 139 -84 231t-221 92h-236z" />
<glyph unicode="Q" horiz-adv-x="1564" d="M119 729q0 297 174 516q188 238 475 238q297 0 483 -234q172 -217 172 -520q1 -258 -112 -444q98 -193 207 -285h-215q-66 31 -121 127q-170 -147 -414 -147q-305 0 -485 227q-164 209 -164 522zM336 735q0 -236 98 -420q119 -223 340 -223q172 0 285 146q24 32 24 75 q0 24 -6 49q-18 72 -143 146q-92 53 -121 59q13 1 25 1q152 0 284 -91q29 -16 37 -22q45 141 45 286q0 236 -94 416q-117 225 -336 225t-340 -225q-98 -182 -98 -422z" />
<glyph unicode="R" horiz-adv-x="1255" d="M117 1462h495q184 0 310 -82q141 -92 141 -258v-14q-2 -84 -41 -164q-86 -180 -274 -225q135 -74 225 -289q131 -313 262 -430h-242q-94 74 -192 356q-49 141 -94 219q-76 131 -168 132h-156v-471q0 -180 53 -236h-221q-37 80 -37 236v1003q0 168 -61 223zM356 1376 q27 -59 27 -137v-428h143q328 0 328 287q0 278 -328 278h-2h-168z" />
<glyph unicode="S" horiz-adv-x="1036" d="M61 74v174q131 -160 328 -160q143 0 256 72q117 75 117 192q0 14 -2 29q-10 94 -90 160q-57 47 -250 147q-344 180 -352 475v8q0 148 149 236q127 76 293 76h7q203 0 370 -113v-162q-72 82 -119 115q-94 66 -221 66q-266 0 -266 -187q0 -100 120 -201q45 -37 254 -167 q162 -100 222 -164q98 -104 98 -248q0 -205 -172 -330q-153 -112 -363 -112h-4q-221 0 -375 94z" />
<glyph unicode="T" horiz-adv-x="974" d="M-20 1462h602q196 0 276 -20q137 -35 166 -150q-86 47 -266 47h-162q8 -43 8 -151v-952q0 -178 53 -236h-204q-53 55 -54 236v952q0 88 -12 151q-352 0 -407 123z" />
<glyph unicode="U" horiz-adv-x="1320" d="M109 1462h204q35 -35 49 -133q10 -70 11 -90v-795q0 -344 311 -344q152 0 237 88t87 240v811q0 170 -58 223h166q49 -35 51 -133q6 -41 7 -90v-811q0 -221 -148 -340q-134 -108 -356 -108h-4q-225 0 -359 118q-139 123 -139 346v795q0 170 -59 223z" />
<glyph unicode="V" horiz-adv-x="1148" d="M23 1462h200q45 -31 88 -133q23 -55 33 -90l301 -1092q35 315 205 803q100 285 100 453q0 31 -4 59h170q1 -16 1 -32q0 -216 -148 -572q-106 -254 -181 -508q-65 -220 -65 -312q0 -23 4 -38h-233l-351 1239q-47 164 -120 223z" />
<glyph unicode="W" horiz-adv-x="1794" d="M35 1462h201q45 -29 88 -129q23 -55 32 -94l269 -1089v12q0 108 100 416q109 336 109 497q0 78 -9 127q-25 150 -125 260h199q41 -23 78 -108q20 -49 31 -84l295 -1116q29 270 204 796q98 299 99 459q0 29 -2 53h170q-8 -229 -209 -751q-182 -471 -182 -685q0 -13 1 -26 h-229l-221 825q-14 -113 -150 -415q-105 -236 -105 -379q0 -16 1 -31h-229l-293 1239q-41 176 -123 223z" />
<glyph unicode="X" horiz-adv-x="1200" d="M35 0q0 109 143 324q74 111 314 421l-281 515q-96 170 -168 202h233q41 -18 99 -104q35 -55 59 -101l187 -344q289 387 288 549h158q0 -139 -387 -655l334 -610q82 -141 149 -195h-243q-84 111 -117 172q-143 260 -250 459q-348 -467 -348 -633h-170z" />
<glyph unicode="Y" horiz-adv-x="1200" d="M23 1462h188q74 -39 135 -223q154 -467 166 -506q41 -135 55 -164q25 -53 72 -53q51 0 74 62l241 661q33 90 33 168q0 37 -12 55h213q14 -18 14 -55q0 -72 -35 -168l-360 -1003q-66 -182 -139 -236h-211q49 41 96 139q35 74 43 97l66 192q-31 -27 -64 -27 q-106 0 -176 107q-35 57 -84 203l-176 530q-53 158 -139 221z" />
<glyph unicode="Z" horiz-adv-x="1161" d="M57 0l774 1350h-411q-201 0 -301 -82q74 194 331 194h3h667l-760 -1341h457q164 0 238 80q0 -92 -74 -150q-66 -51 -162 -51h-762z" />
<glyph unicode="[" horiz-adv-x="890" d="M205 -434v2005h180q256 0 307 -187q-82 45 -241 46h-74v-1721h74q158 0 241 45q-51 -188 -307 -188h-180z" />
<glyph unicode="\" horiz-adv-x="964" d="M18 1575l189 -2l567 -1999h-190z" />
<glyph unicode="]" horiz-adv-x="813" d="M119 -246q82 -45 241 -45h74v1721h-69q-160 0 -244 -46q51 186 309 187h178l-2 -2005l-180 2q-258 2 -307 186z" />
<glyph unicode="^" horiz-adv-x="1087" d="M143 758l402 723l401 -723h-160q-221 395 -239 428q-104 -188 -242 -428h-162z" />
<glyph unicode="_" horiz-adv-x="829" d="M10 -4h811v-98h-811v98z" />
<glyph unicode="`" horiz-adv-x="653" d="M72 1450v33h286q111 -47 193 -254h-47q-160 172 -432 221z" />
<glyph unicode="a" horiz-adv-x="894" d="M66 256q0 143 124 242q63 49 285 153q170 80 170 189q0 74 -57 116q-49 37 -127 37q-154 0 -228 -145v145q111 96 254 97q139 0 228 -68q98 -74 98 -209v-577q0 -178 55 -236h-194q-37 43 -45 127q-23 -55 -127 -100q-92 -39 -164 -39q-125 0 -198.5 70.5t-73.5 197.5z M248 279q0 -190 170 -191q117 0 203 92v479q-12 -20 -134 -92.5t-155 -103.5q-84 -82 -84 -184z" />
<glyph unicode="b" horiz-adv-x="1093" d="M96 1462h189q59 -49 59 -221v-276q70 123 252 125h8q191 0 305 -183q98 -160 99 -368q0 -227 -119 -381q-129 -170 -350 -170q-131 0 -246 61q-141 74 -141 193v999q0 168 -56 221zM344 182q66 -123 209 -127h7q237 0 237 531q0 399 -285 399q-100 0 -168 -70v-733z" />
<glyph unicode="c" horiz-adv-x="917" d="M90 506q0 236 123 399q135 176 365 185h17q122 0 257 -54l2 -137q-14 37 -63 72q-63 45 -150 45q-164 0 -254 -160q-74 -131 -74 -324q0 -182 82 -307q94 -145 269 -145q113 0 184 94l4 -137q-66 -29 -168 -41q-61 -8 -88 -8h-6q-218 0 -358 148q-142 150 -142 370z" />
<glyph unicode="d" horiz-adv-x="1054" d="M88 492q0 293 150 456q130 142 298 142h7q152 -2 217 -101v250q0 170 -53 223h186q39 -33 53 -133q6 -41 6 -90v-1044q-119 -207 -413 -207q-188 0 -324 159q-127 150 -127 345zM303 492q0 -412 291 -412q111 0 166 61v729q-49 125 -203 140q-254 0 -254 -518z" />
<glyph unicode="e" horiz-adv-x="946" d="M88 520q0 225 107 385q123 184 337 185q129 0 222 -62q108 -69 108 -190q0 -108 -90 -203q-61 -63 -223 -154q-154 -83 -209 -151q92 -248 295 -248q133 0 227 125l-2 -135q-63 -49 -186 -72q-66 -12 -109 -12h-5q-211 0 -345 159q-127 152 -127 373zM299 553 q0 -70 14 -127q37 41 119 90q96 59 125 84q51 43 82 98q43 82 43 152t-38.5 118t-106.5 48q-119 0 -187 -182q-51 -137 -51 -281z" />
<glyph unicode="f" horiz-adv-x="745" d="M25 1051h192v176q0 256 316 256h10q109 -2 202 -74v-125q-79 107 -188 107q-61 0 -104 -38t-43 -100v-202q121 0 120 0h15q166 0 182 -129q-61 28 -199 28h-10h-108v-714q0 -176 55 -236h-197q-51 57 -51 236v710q-145 0 -192 105z" />
<glyph unicode="g" horiz-adv-x="1093" d="M92 502q0 285 122 438q119 150 315 150h10q143 -4 225 -97v84h197v-975q0 -223 -50 -333q-99 -224 -403 -224h-8q-193 2 -320 80v152q113 -137 293 -137q131 0 211 92q57 66 74 174q10 59 10 194q-62 -116 -237 -116h-3q-190 0 -319 168q-117 154 -117 350zM307 516 q0 -174 62 -289q77 -145 231 -145h8q106 2 154 94v709q-104 127 -209 127q-145 0 -207 -189q-39 -123 -39 -307z" />
<glyph unicode="h" horiz-adv-x="1056" d="M94 1462h189q59 -49 59 -221v-330q143 178 328 179q137 0 215 -77t78 -214v-563q0 -180 53 -236h-193q-33 33 -49 139q-4 82 -4 97v561q0 78 -56.5 119.5t-135.5 41.5q-123 0 -236 -133v-589q0 -180 55 -236h-194q-53 53 -53 236v1005q0 172 -56 221z" />
<glyph unicode="i" horiz-adv-x="509" d="M166 1370q0 49 33.5 81t83.5 32q47 0 80.5 -33t33.5 -80t-33.5 -80t-80.5 -33q-49 0 -83 32t-34 81zM186 236v841h193v-841q0 -176 53 -236h-192q-53 53 -54 236z" />
<glyph unicode="j" horiz-adv-x="540" d="M-184 -229q61 -123 198 -123q80 0 127 47t47 127v1255h193v-1218q0 -147 -91 -230.5t-239 -83.5q-49 0 -125 23q-86 27 -110 57v146zM172 1372q0 47 33 79t80 32q45 0 77.5 -33t32.5 -78t-32.5 -77.5t-77.5 -32.5q-47 0 -80 31.5t-33 78.5z" />
<glyph unicode="k" horiz-adv-x="1099" d="M86 1462h190q57 -51 58 -221v-731q23 152 233 364l201 203h203l-451 -452q121 -4 234 -183q104 -165 184 -282q86 -131 152 -158h-261q-90 98 -122 154l-140 241q-66 115 -121 154q-113 -98 -112 -240v-311h-193v1241q0 172 -55 221z" />
<glyph unicode="l" horiz-adv-x="448" d="M94 1462h187q59 -49 59 -221v-1005q0 -178 53 -236h-190q-33 31 -47 139q-8 66 -9 97v1005q0 172 -53 221z" />
<glyph unicode="m" horiz-adv-x="1587" d="M156 236v841h192v-180q35 86 113 139.5t170 53.5q231 0 274 -193q86 193 281 193q137 0 212 -75t75 -212v-567q0 -178 53 -236h-191q-35 35 -47 139q-8 66 -8 97v550q0 174 -174 175q-115 0 -195 -154v-571q0 -176 54 -236h-193q-53 57 -53 236v552q0 72 -44 126 q-41 50 -104 49h-10q-158 -6 -213 -162v-565q0 -176 53 -236h-192q-53 53 -53 236z" />
<glyph unicode="n" d="M150 236v841h192v-182q20 53 80 106q98 88 231 89q123 0 203 -80t80 -203v-571q0 -180 53 -236h-188q-35 33 -47 139q-10 92 -11 97v544q0 170 -184 170q-66 0 -126 -41t-87 -102v-571q0 -180 53 -236h-196q-53 57 -53 236z" />
<glyph unicode="o" horiz-adv-x="1048" d="M61 537q0 213 127 376q138 177 347 177q227 0 356 -168q119 -152 119 -385q0 -215 -127 -375q-139 -174 -348 -174q-231 0 -359 162q-115 150 -115 387zM268 547q0 -150 58 -287q73 -180 202 -180q135 0 209 176q59 137 60 291q0 238 -95 364q-76 102 -174 103 q-82 0 -149 -80q-111 -133 -111 -387z" />
<glyph unicode="p" horiz-adv-x="1103" d="M147 -203v1280h193v-112q70 125 254 125q190 0 313 -168q109 -150 109 -355q0 -242 -107 -399q-125 -180 -356 -180q-160 0 -213 59v-250q0 -184 53 -237h-190q-35 37 -47 139q-8 66 -9 98zM340 188q61 -115 213 -131q137 0 203 185q45 127 45 295q0 464 -294 464h-1 q-86 0 -166 -73v-740z" />
<glyph unicode="q" d="M100 496q0 236 101 399q119 195 340 195q164 0 231 -89v76h201v-1280q0 -180 -53 -237h-195q53 59 53 237v250q-92 -59 -237 -59q-195 0 -322 159q-119 147 -119 349zM313 492q0 -166 64 -277q76 -137 231 -137q96 0 170 72v731q-72 135 -205 135h-2q-258 0 -258 -524z " />
<glyph unicode="r" horiz-adv-x="733" d="M164 236v841h192v-200q79 213 222 213q98 0 139 -48v-178q-66 86 -148 86q-80 0 -146.5 -70.5t-66.5 -152.5v-491q0 -178 54 -236h-191q-35 35 -47 139q-8 66 -8 97z" />
<glyph unicode="s" horiz-adv-x="763" d="M90 834q0 117 90 188q84 68 203 68q137 0 266 -86v-140q-90 137 -237 137q-135 0 -136 -116q0 -109 130 -183q141 -82 204 -145q100 -100 101 -221q0 -176 -138 -273q-108 -75 -218 -75h-3q-170 0 -258 80l2 139q45 -59 85 -86t110 -37h33q90 0 144 62.5t54 154.5 q0 74 -90 145q-29 23 -153 99q-188 115 -189 289z" />
<glyph unicode="t" horiz-adv-x="620" d="M18 979q236 133 361 340v-242h229v-121q-47 23 -141 23h-86v-743q0 -182 53 -236h-192q-31 33 -43 139q-10 92 -11 97v743h-170z" />
<glyph unicode="u" horiz-adv-x="1064" d="M160 289v788h192v-786q0 -78 52.5 -127t130.5 -49q63 0 128.5 47t81.5 106v809h193v-856q0 -160 53 -221h-188q-47 45 -53 184q-61 -176 -289 -196q-141 0 -221 79.5t-80 221.5z" />
<glyph unicode="v" horiz-adv-x="927" d="M20 1077h195l303 -971q-2 29 -2 60q0 145 112.5 437t112.5 409q0 37 -8 65h162q12 -29 12 -73q0 -84 -26 -164q-104 -270 -162 -404q-119 -307 -119 -407q0 -16 4 -29h-242z" />
<glyph unicode="w" horiz-adv-x="1406" d="M20 1075h197l256 -966q-8 39 -8 81q0 139 61 328q68 201 105 301q20 61 20 119q0 63 -26 137h184l246 -969q-4 29 -4 58q0 143 87 424.5t87 408.5q0 45 -13 80h162q12 -29 12 -73q0 -92 -34 -185q-227 -608 -228 -778q0 -27 6 -39l-221 -2l-196 715q-4 -117 -88 -353 q-75 -210 -75 -334q0 -15 1 -28h-236z" />
<glyph unicode="x" horiz-adv-x="1091" d="M61 0q0 121 115 262q63 78 256 258l-358 557h227l270 -426q233 238 234 426h182q0 -106 -108 -250q-70 -92 -246 -266l258 -401q94 -145 156 -160h-254q-86 92 -134 166l-161 254q-248 -264 -248 -420h-189z" />
<glyph unicode="y" horiz-adv-x="1144" d="M61 1077h183q43 -35 82 -133q25 -66 30 -90l121 -537q49 -219 129 -219q76 0 109 135l157 648q31 127 31 196h207l-311 -1280q-43 -180 -113 -237h-197q72 61 117 237l56 213q-41 -22 -85 -22h-4q-205 0 -276 311l-127 555q-39 172 -109 223z" />
<glyph unicode="z" d="M41 0l664 977l-256 2h-13q-232 0 -266 -70q14 106 135 148q61 20 119 20h580l-650 -975l379 2q219 2 240 74q-6 -113 -115 -155q-55 -23 -106 -23h-711z" />
<glyph unicode="{" horiz-adv-x="606" d="M14 571q113 72 113 226v471q0 221 190 309h164q-96 -45 -145 -141q-43 -76 -43 -150v-477q0 -156 -152 -236q152 -57 152 -202v-521q0 -201 186 -286h-186q-166 96 -166 254v553q0 135 -113 200z" />
<glyph unicode="|" horiz-adv-x="563" d="M195 -432l2 2009h176v-2009h-178z" />
<glyph unicode="}" horiz-adv-x="481" d="M-2 1579h188q166 -92 166 -252l4 -555q0 -133 115 -199q-113 -74 -113 -227l4 -467q0 -221 -190 -311l-164 -4q96 49 146 145q43 76 43 148l-4 477q0 154 151 235q-154 57 -154 203l-4 520q0 201 -188 287z" />
<glyph unicode="~" horiz-adv-x="1038" d="M90 485q98 98 236 99q53 0 172 -31l55 -14q33 -4 63 -4q86 0 172 45l17 -58q-88 -100 -254 -100q-57 0 -106.5 16.5t-82.5 24.5q-47 12 -90 12q-80 0 -163 -41z" />
<glyph unicode="&#xa1;" horiz-adv-x="575" d="M164 1321q0 51 37 86q39 35 88 35q51 0 86 -35q37 -35 37 -86t-35 -86q-39 -35 -88 -35t-88 35q-37 33 -37 86zM182 80l60 1003h88l65 -1003q4 -41 -30 -70q-33 -31 -74 -30q-41 0 -76 28q-35 29 -33 72z" />
<glyph unicode="&#xa3;" horiz-adv-x="991" d="M61 924h185q-2 10 -2 143q0 186 109.5 301t295.5 115q172 0 299 -60v-147q-27 41 -117 78q-82 35 -137 35q-143 0 -200 -91q-47 -74 -48 -227v-147h107q238 0 307 -144q-92 35 -414 31v-393q0 -233 -24 -334l215 -2q231 -2 305 43v-125h-696l2 817q-143 8 -187 107z" />
<glyph unicode="&#xa5;" horiz-adv-x="1046" d="M-35 1462h225l355 -575l211 389q29 51 86 186h168l-379 -696h348v-100h-363v-172h363v-99h-363v-395h-206v395h-357v99h357v172h-357v100h342z" />
<glyph unicode="&#xa6;" horiz-adv-x="512" d="M190 0v614h132v-614h-132zM190 922v614h132v-614h-132z" />
<glyph unicode="&#xa7;" horiz-adv-x="1099" d="M76 553q0 127 114 203q90 57 232 75q-346 135 -346 379q0 145 168 220q123 53 291 53q233 0 407 -86v-164q-63 72 -180 115q-106 39 -213 38q-248 0 -248 -155q0 -113 86 -184q47 -39 188 -103q244 -109 314 -158q141 -98 141 -239q0 -131 -92 -219q-82 -80 -219 -111 q150 -68 217 -131q90 -86 94 -213q6 -160 -158 -242q-125 -66 -301 -65q-229 0 -467 112v175q98 -90 158 -121q80 -41 195 -54q39 -4 82 -4q258 0 258 193q0 100 -86 168q-68 53 -242 123q-391 158 -393 395zM305 571q0 -109 82 -182q53 -49 180 -104q238 33 238 254 q0 117 -158 198q-49 4 -92 4q-250 0 -250 -170z" />
<glyph unicode="&#xa8;" horiz-adv-x="681" d="M106 1298q0 45 33 77t78 32q47 0 80 -30.5t33 -78.5q0 -47 -33 -77.5t-80 -30.5t-79 30.5t-32 77.5zM465 1298q0 47 32.5 78t80.5 31q45 0 77.5 -32t32.5 -77q0 -47 -31.5 -77.5t-78.5 -30.5t-80 30.5t-33 77.5z" />
<glyph unicode="&#xa9;" horiz-adv-x="1603" d="M63 741q0 309 216.5 524.5t527.5 215.5q307 0 522 -215t215 -525q0 -309 -214 -525t-523 -216q-311 0 -527.5 215t-216.5 526zM160 741q0 -268 189.5 -461.5t457.5 -193.5t454.5 192.5t186.5 462.5t-186.5 462t-454.5 192q-266 0 -456.5 -192.5t-190.5 -461.5zM350 725 q0 203 119 346q125 152 324 152q102 0 165 -21q47 -14 50 -22v-109q-49 88 -181 88q-154 0 -241 -143q-74 -121 -74 -285q0 -162 80 -266q90 -117 246 -117q123 0 168 82v-117q-59 -43 -215 -43q-188 0 -314.5 133.5t-126.5 321.5z" />
<glyph unicode="&#xab;" horiz-adv-x="604" d="M61 373q-2 213 154 362h41q-82 -178 -82 -360q0 -184 82 -375h-39q-154 162 -156 373zM246 373q-2 213 153 362h41q-82 -178 -82 -360q0 -184 82 -375h-39q-154 162 -155 373z" />
<glyph unicode="&#xac;" horiz-adv-x="2447" d="M145 410h209q109 -6 115 -74q-43 29 -143 29l-62 2q10 -16 10 -52v-43h45q70 -6 91 -57q-27 12 -91 12h-45v-139q6 -47 31 -47h96q63 4 78 31v-25q-4 -47 -67 -47h-131h-74q-16 0 -21 33q-2 12 -2 30l-4 252q0 66 -35 95zM487 326h56q53 -6 53 -62q12 41 49 55 q16 6 37 11q72 0 90 -64q27 63 78 64q98 0 98 -88v-179q2 -43 33 -63h-86q-25 0 -25 63v162q0 47 -49 47q-35 0 -45 -32v-177q2 -43 33 -63h-88q-25 0 -27 63v162q0 47 -43 47q-45 0 -51 -32v-177q0 -41 31 -63h-86q-25 0 -27 63v197q0 55 -31 66zM805 899h29q23 0 26 -84 v-84q0 -70 48 -113t108 -43h180q49 0 49 54q0 23 -14 36t-35 31v103l31 -31q35 -31 35 -72v-49q0 -45 -35 -84q-23 -25 -31 -33q-45 -37 -96 -36h-82q-72 0 -126 56t-54 132v154q-4 47 -33 63zM844 1169h28q25 -10 25 -86v-92q-2 -29 19.5 -55.5t54.5 -26.5h47q319 0 309 0 q2 37 28.5 69t96.5 87h21q-19 -20 -50 -47q-18 -18 -18 -60v-49h49q20 0 51 29v47q10 -12 25 -27q61 61 88 62q47 0 47 -45q0 -37 -23.5 -59.5t-56.5 -55.5q-14 -12 -31 -12q-49 0 -49 74l-65 -62q-2 -2 -13.5 -12t-21.5 -25v-127q0 -68 -38 -101.5t-85 -80.5h-27l52 47 q20 23 20 62v202h-315q-61 0 -97 48.5t-41 107.5v125q0 45 -30 63zM915 729l60 59q59 -57 59 -73q0 -10 -59 -68q-4 27 -60 82zM940 1004v63q18 -23 37 -23q23 0 39 17q2 4 129 137q-53 47 -96 76q-14 10 -27 0q-16 -6 -21 -21q-10 -55 0 -127l-34 35l-11 10q-14 16 -14 41 q0 27 19 43q41 45 79 45h68q20 0 92 -47q8 8 10 17v84q-53 53 -24 86l41 41q0 -35 35 -74q27 -25 26 -45q0 -8 -5 -14.5t-32 -34.5q-2 2 -22 28v-69q-2 -14 -10 -33q43 -45 49 -111v-63q0 -20 -11.5 -30.5t-60.5 -59.5q-12 -12 -35 -12h-168q-53 0 -53 41zM991 326h51 q57 0 58 -72v-191q0 -23 35 -63h-86q-25 0 -27 63v197q0 25 -31 66zM1016 1040h192q59 0 29 50q-33 39 -78 94l-108 -113q-8 -12 -35 -31zM1022 391q0 41 41 41q37 0 37 -41q0 -39 -37 -39q-41 0 -41 39zM1040 729l60 59q57 -57 57 -73q0 -10 -57 -68q-6 31 -60 82z M1149 326h51q29 0 41 -16.5t14 -49.5q10 41 39 57q12 6 29 9q37 -2 45 -25v-57q-39 47 -90 14q-18 -10 -23 -33v-162q0 -41 33 -63h-86q-23 0 -24 63v197q-2 55 -29 66zM1174 489h149q59 0 117 54q76 74 76 125q0 25 -17 41l-2 2q-23 20 -33 32v99q27 -27 31 -29 q35 -33 35 -76v-131q0 -80 -51 -131q-63 -66 -156 -65h-61zM1260 969q23 18 47 45q20 18 20 51v248q0 53 31 82q51 45 94 86h21q-25 -25 -43 -41q-25 -27 -25 -64v-120.5v-120.5q0 -45 -35 -84q-49 -47 -86 -82h-24zM1354 78q0 70 119 121q43 20 43 55q0 37 -48 37 q-47 -2 -63 -47v57q57 25 82 25q39 0 68.5 -23.5t29.5 -54.5v-185q4 -43 37 -63h-86q-23 18 -27 37q-18 -41 -69 -41q-86 0 -86 82zM1423 80q0 -45 47 -45q25 0 37 18v137q-23 -14 -49 -34q-35 -29 -35 -76zM1540 948q41 -49 59 -49q14 0 15 19q0 14 -12 30q-17 31 -62 0z M1616 291q66 35 76 45q41 33 59 65v-75h74v-50q-39 13 -51 13h-11.5h-11.5v-228q2 -43 33 -61h-86q-25 0 -29 61v230h-53zM1827 156q0 70 37 120t100 54q100 0 100 -76q0 -33 -26.5 -61.5t-66.5 -46t-52 -35.5q6 -47 43 -70q61 -29 100 39v-60q-18 -20 -92 -20 q-61 0 -102 44t-41 112zM1913 145q24 15 67 66q14 23 15 49q0 45 -35 41q-57 -16 -47 -156zM2097 250q0 33 28.5 56.5t69.5 23.5q53 -4 82 -29v-53q-39 43 -61 45q-49 2 -49 -29q0 -25 24 -39q106 -59 109 -121q0 -43 -35 -73.5t-84 -30.5q-51 0 -82 20v60q14 -29 39 -41 q10 -4 25 -4q63 0 63 53q0 27 -35 45q-92 51 -94 117z" />
<glyph unicode="&#xad;" horiz-adv-x="839" d="M92 664v88h707v-88h-707z" />
<glyph unicode="&#xae;" horiz-adv-x="1603" d="M59 741q0 309 217.5 524.5t526.5 215.5q307 0 522 -215t215 -525q0 -309 -214 -525t-523 -216q-311 0 -527.5 215t-216.5 526zM156 741q0 -268 189.5 -461.5t457.5 -193.5t454.5 192.5t186.5 462.5t-186.5 462t-454.5 192q-266 0 -456.5 -192.5t-190.5 -461.5zM506 281 l2 936h309q113 0 195 -54q100 -66 94 -172q-10 -205 -209 -243q53 -6 137 -152l180 -315h-159q-80 135 -140.5 252.5t-93.5 148.5q-47 53 -119 53h-53v-454h-143zM647 799h94q211 0 211 186q0 178 -213 178h-92v-364z" />
<glyph unicode="&#xb0;" horiz-adv-x="819" d="M102 1231q0 127 90.5 216t217.5 89q129 0 218 -90t89 -219t-89 -217t-218 -88q-131 0 -219.5 89t-88.5 220zM229 1229q0 -78 52.5 -129t130.5 -51q76 0 127 52t51 128t-53.5 128t-128.5 52q-76 0 -127.5 -52t-51.5 -128z" />
<glyph unicode="&#xb5;" horiz-adv-x="1073" d="M162 -440l2 1515h194v-782q0 -80 51.5 -130t131.5 -50q61 0 127.5 47t83.5 106v811h194v-858q6 -168 53 -219h-194q-37 104 -49 182v-24q-66 -152 -289 -170q-57 0 -109 12v-440h-196z" />
<glyph unicode="&#xba;" horiz-adv-x="1079" d="M391 1679q0 51 37 86t92 35q53 0 90 -34.5t37 -86.5q0 -49 -38 -83.5t-89 -34.5q-55 0 -92 34.5t-37 83.5zM455 1679q0 -88 63 -88q66 0 66 88q0 41 -18.5 67t-47.5 26q-63 0 -63 -93z" />
<glyph unicode="&#xbb;" horiz-adv-x="583" d="M164 0q78 178 82 360t-80 375h39q152 -164 153 -373q2 -211 -155 -362h-39zM348 0q78 178 82 360t-80 375h39q152 -162 154 -375q2 -211 -156 -360h-39z" />
<glyph unicode="&#xbc;" horiz-adv-x="1505" d="M37 1389v67q135 6 285 80v-784h-146v659zM147 0l971 1520h160l-969 -1520h-162zM829 201q164 358 222 483l30 70q8 18 13 22h166q-160 -309 -238 -491l111 -2l51 2v196h133v-198h98v-82q-23 6 -82 6h-16v-205h-133v205z" />
<glyph unicode="&#xbd;" horiz-adv-x="1515" d="M86 1321v63q147 10 270 78v-749h-139v630zM193 -2l925 1448h154l-926 -1448h-153zM946 2q59 131 215 367q117 176 121 229q4 49 -17.5 73.5t-70.5 16.5q-94 -14 -168 -121v115q94 68 201 70q104 2 155.5 -38t49.5 -120q-2 -61 -101 -221q-166 -268 -180 -299h100 q125 0 176 35v-107h-481z" />
<glyph unicode="&#xbe;" horiz-adv-x="1423" d="M37 766v123q53 -78 143 -88q70 -8 118 38t48 115q0 100 -90 162q-74 51 -184 62q29 43 180 256h-47q-127 0 -156 -17v92h369q-64 -82 -162 -215q209 -66 209 -274q0 -113 -66.5 -195t-177.5 -94q-23 -2 -45 -2q-80 0 -139 37zM117 0l968 1516h160l-966 -1516h-162z M797 201q164 358 221 481l29 61l14 31h168q-162 -307 -240 -491h162v198h135v-198h96v-84q-20 8 -82 8h-14v-205h-135v205z" />
<glyph unicode="&#xbf;" horiz-adv-x="1077" d="M168 442q25 205 229 369q193 160 170 383l111 2q20 -190 -6 -303q-39 -166 -186.5 -285t-131.5 -270q8 -98 82 -160.5t178 -58.5q68 12 123 37q133 61 201 180v-166q-119 -123 -315 -150q-211 -20 -349 109q-129 127 -106 313zM494 1436q0 47 35.5 81.5t86.5 34.5 q49 0 84 -34.5t35 -81.5q0 -49 -34.5 -83t-84.5 -34q-51 0 -86.5 33.5t-35.5 83.5z" />
<glyph unicode="&#xc0;" horiz-adv-x="1269" d="M23 0q-4 76 36 197l351 1032q39 115 39 172q0 35 -13 61h162q63 -39 135 -221l400 -1022q55 -141 131 -219h-217q-53 47 -113 201l-141 362h-455l-127 -370q-29 -84 -29 -152q0 -20 6 -41h-165zM360 1735v32h205q80 -49 105 -75q70 -80 84 -144l-35 2q-123 135 -359 185z M371 670h381l-215 563q6 -59 -13 -115q-147 -434 -153 -448z" />
<glyph unicode="&#xc1;" horiz-adv-x="1271" d="M23 0q-4 76 36 197l351 1032q39 115 39 172q0 35 -13 61h162q63 -39 135 -221l400 -1022q55 -141 131 -219h-217q-53 47 -113 201l-141 362h-455l-127 -370q-29 -84 -29 -152q0 -20 6 -41h-165zM307 1548q10 39 35 76q6 10 49 68q53 55 107 75h202v-32 q-227 -43 -356 -185zM371 670h381l-215 563q6 -59 -13 -115q-147 -434 -153 -448z" />
<glyph unicode="&#xc2;" horiz-adv-x="1284" d="M23 0h165q-6 20 -6 41q0 68 29 152l127 370h455l141 -362q59 -154 113 -201h217q-76 78 -131 219l-400 1022q-72 182 -135 221h-162q12 -27 13 -61q0 -57 -39 -172l-351 -1032q-41 -121 -36 -197zM338 1532q78 166 213 237q133 -70 211 -237h-29q-20 25 -59 55 q-74 60 -123 72q-86 -27 -184 -127h-29zM371 670q6 14 153 448q18 55 13 115l215 -563h-381z" />
<glyph unicode="&#xc3;" horiz-adv-x="1269" d="M23 0h165q-6 20 -6 41q0 68 29 152l127 370h455l141 -362q59 -154 113 -201h217q-76 78 -131 219l-400 1022q-72 182 -135 221h-162q12 -27 13 -61q0 -57 -39 -172l-351 -1032q-41 -121 -36 -197zM264 1698q78 78 185 78q39 0 112.5 -22.5t112.5 -22.5q68 0 131 41 l16 -27q-82 -92 -194 -92q-45 0 -78 10q-129 41 -152 41q-55 0 -116 -33zM371 670q6 14 153 448q18 55 13 115l215 -563h-381z" />
<glyph unicode="&#xc4;" horiz-adv-x="1273" d="M23 0q-4 76 36 197l351 1032q39 115 39 172q0 35 -13 61h162q63 -39 135 -221l400 -1022q55 -141 131 -219h-217q-53 47 -113 201l-141 362h-455l-127 -370q-29 -84 -29 -152q0 -20 6 -41h-165zM272 1667q0 47 31 77t78 30q45 0 76.5 -31t31.5 -76t-31.5 -75.5 t-76.5 -30.5t-77 30.5t-32 75.5zM371 670h381l-215 563q6 -59 -13 -115q-147 -434 -153 -448zM623 1667q0 45 31.5 76t76.5 31t77 -31t32 -76q0 -43 -33 -74.5t-76 -31.5q-45 0 -76.5 30.5t-31.5 75.5z" />
<glyph unicode="&#xc5;" horiz-adv-x="1259" d="M0 0h166q-6 20 -6 41q0 68 28 152l127 370h455l141 -362q59 -154 113 -201h217q-76 78 -131 219l-399 1022q-72 182 -136 221h-161q12 -27 12 -61q0 -57 -39 -172l-350 -1032q-41 -121 -37 -197zM348 670q6 14 154 448q18 55 12 115l215 -563h-381zM391 1679q0 51 37 86 t92 35q53 0 90 -34.5t37 -86.5q0 -49 -38 -83.5t-89 -34.5q-55 0 -92 34.5t-37 83.5zM455 1679q0 -88 63 -88q66 0 66 88q0 41 -18.5 67t-47.5 26q-63 0 -63 -93z" />
<glyph unicode="&#xc6;" horiz-adv-x="1751" d="M0 0q47 109 76 160l649 1093q68 115 59 209h531q336 0 381 -207q-92 100 -387 101h-281q16 -41 16 -117v-311h195q215 0 283 -152q-59 41 -320 41h-158v-581q0 -61 9 -115h415q213 0 263 82q0 -203 -224 -203h-614q-35 35 -47 139q-6 43 -8 97v327h-355l-229 -381 q-61 -117 -66 -182h-188zM561 705h277v180v368q-12 -100 -54 -172z" />
<glyph unicode="&#xc7;" horiz-adv-x="1212" d="M109 702q0 322 178 545q195 242 508 242q49 0 178 -21q145 -23 151 -55l4 -168q-90 158 -282 158q-248 0 -391 -227q-123 -195 -123 -457q0 -256 133 -430q147 -189 395 -189q74 0 153 42t111 106v-185q-82 -59 -288 -63l-62 -82q45 6 62 6q166 0 165 -147 q0 -182 -233 -183q-90 0 -193 39l37 82q76 -31 127 -30q143 0 138 86q-4 76 -123 75q-20 0 -76 -14l-35 41l96 127q-281 18 -458 221q-172 197 -172 481z" />
<glyph unicode="&#xc8;" horiz-adv-x="1202" d="M143 1462h541q340 0 383 -205q-74 96 -387 97h-283q10 -53 11 -113v-313h198q219 0 287 -158q-61 43 -322 43h-163v-580q0 -66 12 -120h420q209 0 260 82q0 -195 -221 -195h-623q-53 53 -53 233v1008q-6 174 -60 221zM389 1735v32h203q86 -53 106 -75q66 -76 84 -142h-37 q-88 98 -229 150q-49 18 -127 35z" />
<glyph unicode="&#xc9;" horiz-adv-x="1206" d="M143 1462h541q340 0 383 -205q-74 96 -387 97h-283q10 -53 11 -113v-313h198q219 0 287 -158q-61 43 -322 43h-163v-580q0 -66 12 -120h420q209 0 260 82q0 -195 -221 -195h-623q-53 53 -53 233v1008q-6 174 -60 221zM430 1550q8 35 35 76q2 4 49 66q53 55 104 75h203 v-32q-225 -43 -356 -185h-35z" />
<glyph unicode="&#xca;" horiz-adv-x="1204" d="M143 1462q53 -47 60 -221v-1008q0 -180 53 -233h623q221 0 221 195q-51 -82 -260 -82h-420q-12 55 -12 120v580h163q260 0 322 -43q-68 158 -287 158h-198v313q0 59 -11 113h283q313 0 387 -97q-43 205 -383 205h-541zM346 1532q78 168 213 237q129 -68 213 -237h-31 q-96 104 -182 127q-84 -27 -180 -127h-33z" />
<glyph unicode="&#xcb;" horiz-adv-x="1200" d="M143 1462h541q340 0 383 -205q-74 96 -387 97h-283q10 -53 11 -113v-313h198q219 0 287 -158q-61 43 -322 43h-163v-580q0 -66 12 -120h420q209 0 260 82q0 -195 -221 -195h-623q-53 53 -53 233v1008q-6 174 -60 221zM276 1667q0 45 32 76t77 31q47 0 78 -30t31 -77 t-31 -76.5t-78 -29.5q-45 0 -77 30.5t-32 75.5zM627 1667q0 45 31.5 76t76.5 31q47 0 78 -30t31 -77t-31 -76.5t-78 -29.5q-45 0 -76.5 30.5t-31.5 75.5z" />
<glyph unicode="&#xcc;" horiz-adv-x="583" d="M84 1735v32h205q80 -49 104 -75q70 -80 84 -144l-35 2q-123 135 -358 185zM115 1462h204q53 -47 60 -223v-1003q0 -178 53 -236h-205q-53 57 -53 236v1003q-6 174 -59 223z" />
<glyph unicode="&#xcd;" horiz-adv-x="579" d="M61 1550q10 37 50 95q27 39 34 47q49 53 105 75h205l2 -32q-229 -43 -361 -185h-35zM137 1462h205q53 -47 59 -223v-1003q0 -178 54 -236h-205q-53 57 -53 236v1003q-6 174 -60 223z" />
<glyph unicode="&#xce;" horiz-adv-x="579" d="M63 1532q78 168 216 237q133 -70 213 -237h-29q-117 109 -187 127q-86 -27 -184 -127h-29zM145 1462q53 -49 60 -223v-1003q0 -178 53 -236h205q-53 57 -53 236v1003q-6 176 -60 223h-205z" />
<glyph unicode="&#xcf;" horiz-adv-x="686" d="M31 1667q0 45 31.5 76t76.5 31q47 0 78 -30t31 -77t-31 -76.5t-78 -29.5q-45 0 -76.5 30.5t-31.5 75.5zM184 1462h205q53 -47 60 -223v-1003q0 -178 53 -236h-205q-53 57 -53 236v1003q-6 174 -60 223zM381 1667q0 45 31.5 76t76.5 31q47 0 78 -30t31 -77t-31 -76.5 t-78 -29.5q-45 0 -76.5 30.5t-31.5 75.5z" />
<glyph unicode="&#xd0;" horiz-adv-x="1304" d="M31 643v127h119v469q-4 174 -60 223h473q307 0 494 -219q176 -205 176 -518q0 -295 -186 -504q-195 -221 -486 -221h-356q-35 35 -47 139q-6 43 -8 97v407h-119zM338 1376q20 -90 20 -137v-469h371v-127h-371v-407q0 -100 17 -150q-10 0 162 -4h26q219 0 342 233 q106 193 107 424q0 254 -123 437q-133 201 -367 200h-184z" />
<glyph unicode="&#xd1;" horiz-adv-x="1286" d="M98 1462q57 -55 58 -254l-2 -993q0 -90 20 -215h184q-57 47 -57 215v713q0 262 -41 368q10 -8 62.5 -106t418.5 -877q88 -188 187 -313h200q-27 57 -26 256v979q0 182 -21 227h-178q57 -47 58 -227v-594q0 -203 32 -375q-51 74 -133 246l-360 758q-76 160 -150 192h-252z M311 1700q78 78 185 78q39 0 112.5 -22.5t112.5 -22.5q70 0 131 41l18 -27q-82 -94 -194 -94q-39 0 -76 12q-125 41 -156 41q-55 0 -118 -33z" />
<glyph unicode="&#xd2;" horiz-adv-x="1470" d="M57 729q0 291 179 514q190 240 471 240q293 0 483 -236q176 -219 176 -518q0 -315 -168 -524q-182 -225 -491 -225q-305 0 -486 227q-164 209 -164 522zM279 727q0 -240 98 -422q121 -225 342 -225q215 0 334 227q94 180 94 420q0 238 -94 422q-119 233 -334 233 q-219 0 -342 -231q-98 -186 -98 -424zM559 1735v34h205q86 -53 106 -75q66 -76 82 -144h-34q-133 147 -359 185z" />
<glyph unicode="&#xd3;" horiz-adv-x="1470" d="M57 729q0 291 179 514q190 240 471 240q293 0 483 -236q176 -219 176 -518q0 -315 -168 -524q-182 -225 -491 -225q-305 0 -486 227q-164 209 -164 522zM279 727q0 -240 98 -422q121 -225 342 -225q215 0 334 227q94 180 94 420q0 238 -94 422q-119 233 -334 233 q-219 0 -342 -231q-98 -186 -98 -424zM483 1550q10 43 49 97q70 94 144 122h205v-34q-229 -43 -361 -185h-37z" />
<glyph unicode="&#xd4;" horiz-adv-x="1474" d="M61 729q0 291 179 514q190 240 471 240q293 0 483 -236q176 -219 176 -518q0 -315 -168 -524q-182 -225 -491 -225q-305 0 -486 227q-164 209 -164 522zM283 727q0 -240 98 -422q121 -225 342 -225q215 0 334 227q94 180 94 420q0 238 -94 422q-119 233 -334 233 q-219 0 -342 -231q-98 -186 -98 -424zM502 1532q76 166 211 235q47 -27 82 -55q80 -70 131 -180h-29q-70 61 -86 74q-55 41 -98 51q-84 -27 -183 -125q-2 -2 -28 0z" />
<glyph unicode="&#xd5;" horiz-adv-x="1470" d="M57 729q0 291 179 514q190 240 471 240q293 0 483 -236q176 -219 176 -518q0 -315 -168 -524q-182 -225 -491 -225q-305 0 -486 227q-164 209 -164 522zM279 727q0 -240 98 -422q121 -225 342 -225q215 0 334 227q94 180 94 420q0 238 -94 422q-119 233 -334 233 q-219 0 -342 -231q-98 -186 -98 -424zM438 1702q78 78 185 78q39 0 113.5 -22.5t113.5 -22.5q70 0 129 41l18 -27q-82 -96 -192 -96q-39 0 -80 14q-121 41 -156 41q-53 0 -116 -33z" />
<glyph unicode="&#xd6;" horiz-adv-x="1470" d="M57 729q0 291 179 514q190 240 471 240q293 0 483 -236q176 -219 176 -518q0 -315 -168 -524q-182 -225 -491 -225q-305 0 -486 227q-164 209 -164 522zM279 727q0 -240 98 -422q121 -225 342 -225q215 0 334 227q94 180 94 420q0 238 -94 422q-119 233 -334 233 q-219 0 -342 -231q-98 -186 -98 -424zM414 1669q0 45 32.5 76t77.5 31t77 -31t32 -76t-32 -76.5t-77 -31.5t-77.5 31.5t-32.5 76.5zM768 1669q0 45 33 76t78 31t76.5 -31t31.5 -76t-31.5 -76.5t-76.5 -31.5t-78 31.5t-33 76.5z" />
<glyph unicode="&#xd7;" d="M90 276l363 365l-361 360l74 74l360 -362l363 364l74 -73l-363 -363l361 -365l-74 -71l-361 362l-362 -362z" />
<glyph unicode="&#xd8;" horiz-adv-x="1406" d="M59 727q0 293 177 516q188 242 475 242q188 0 338 -107l61 84h143l-112 -162q225 -229 225 -573q0 -317 -164 -522q-180 -225 -491 -225q-201 0 -349 102l-57 -82h-143l102 164q-205 215 -205 563zM270 733q0 -242 97 -416l604 943q-106 129 -260 129q-221 0 -344 -232 q-97 -182 -97 -424zM438 211q113 -129 273 -129q213 0 331 225q98 186 99 420q0 246 -99 420z" />
<glyph unicode="&#xd9;" horiz-adv-x="1331" d="M111 1462h204q35 -35 50 -133q10 -70 10 -90v-778q0 -360 311 -361q152 0 237 88t87 240v811q0 170 -58 223h166q49 -35 51 -133q6 -41 7 -90v-799q0 -227 -144 -348q-133 -113 -364 -112q-225 0 -359 118q-139 123 -139 346v795q0 170 -59 223zM438 1735v32h203 q86 -51 107 -75q68 -78 86 -142h-37q-131 143 -359 185z" />
<glyph unicode="&#xda;" horiz-adv-x="1329" d="M111 1462h204q35 -35 50 -133q10 -70 10 -90v-778q0 -360 311 -361q152 0 237 88t87 240v811q0 170 -58 223h166q49 -35 51 -133q6 -41 7 -90v-799q0 -227 -144 -348q-133 -113 -364 -112q-225 0 -359 118q-139 123 -139 346v795q0 170 -59 223zM449 1550q10 39 49 97 q23 33 34 45q51 55 107 75h203v-32q-227 -43 -359 -185h-34z" />
<glyph unicode="&#xdb;" horiz-adv-x="1329" d="M111 1462q59 -53 59 -223v-795q0 -223 139 -346q133 -119 359 -118q231 0 364 112q143 121 144 348v799q0 49 -7 90q-2 98 -51 133h-166q57 -53 58 -223v-811q-2 -152 -87 -240t-237 -88q-311 0 -311 361v778q0 20 -10 90q-14 98 -50 133h-204zM453 1532q76 166 211 235 q47 -27 81 -55q80 -70 132 -180h-29q-70 61 -86 74q-55 41 -98 51q-84 -27 -183 -125q-2 -2 -28 0z" />
<glyph unicode="&#xdc;" horiz-adv-x="1329" d="M111 1462h204q35 -35 50 -133q10 -70 10 -90v-778q0 -360 311 -361q152 0 237 88t87 240v811q0 170 -58 223h166q49 -35 51 -133q6 -41 7 -90v-799q0 -227 -144 -348q-133 -113 -364 -112q-225 0 -359 118q-139 123 -139 346v795q0 170 -59 223zM393 1669q0 43 32 74 t75 31t76.5 -31t33.5 -74q0 -45 -32.5 -76.5t-77.5 -31.5t-76 31.5t-31 76.5zM743 1669q0 43 33 74t76 31t74.5 -31t31.5 -74q0 -45 -30.5 -76.5t-75.5 -31.5t-77 31.5t-32 76.5z" />
<glyph unicode="&#xdd;" horiz-adv-x="1189" d="M23 1462q86 -63 139 -221l176 -530q49 -145 84 -203q70 -106 176 -107q33 0 64 27l-66 -192q-6 -18 -43 -97q-49 -104 -96 -139h211q74 53 139 236l360 1003q35 96 35 168q0 37 -14 55h-213q12 -18 12 -55q0 -78 -33 -168l-241 -661q-23 -61 -74 -62q-47 0 -72 53 q-14 29 -55 164q-12 39 -166 506q-61 184 -135 223h-188zM444 1550q74 178 160 213h246v-28q-233 -44 -358 -185h-48z" />
<glyph unicode="&#xdf;" horiz-adv-x="1239" d="M164 233v879q0 184 112 283q106 88 297 88h48q422 0 421 -264q0 -182 -280 -301q-78 -33 -78 -72q0 -35 90 -74q401 -178 402 -471q0 -94 -49.5 -186t-133.5 -129t-213 -37q-186 0 -307 78v120q68 -78 148 -100q37 -12 79 -12q121 0 201 92t80 215q0 252 -313 416 q-94 47 -95 106q0 72 89 109q193 84 194 239q6 205 -248 205h-8q-219 0 -242 -272v-912q4 -184 54 -233h-195q-33 35 -45 139q-6 41 -8 94z" />
<glyph unicode="&#xe0;" horiz-adv-x="907" d="M66 256q0 143 124 242q63 49 285 153q170 80 170 189q0 74 -57 116q-49 37 -127 37q-154 0 -228 -145v145q111 96 254 97q139 0 228 -68q98 -74 98 -209v-577q0 -178 55 -236h-194q-37 43 -45 127q-23 -55 -127 -100q-92 -39 -164 -39q-125 0 -198.5 70.5t-73.5 197.5z M248 279q0 -190 170 -191q117 0 203 92v479q-12 -20 -134 -92.5t-155 -103.5q-84 -82 -84 -184zM291 1380v35h211q86 -51 108 -78q70 -80 86 -147h-34q-129 141 -371 190z" />
<glyph unicode="&#xe1;" horiz-adv-x="911" d="M68 256q0 143 125 242q63 49 284 153q170 80 170 189q0 74 -57 116q-49 37 -127 37q-154 0 -227 -145v145q111 96 253 97q139 0 228 -68q98 -74 98 -209v-577q0 -178 55 -236h-194q-37 43 -45 127q-23 -55 -127 -100q-92 -39 -164 -39q-125 0 -198.5 70.5t-73.5 197.5z M250 279q0 -190 170 -191q117 0 203 92v479q-12 -20 -134 -92.5t-155 -103.5q-84 -82 -84 -184zM285 1190q8 35 34 78q12 18 52 69q55 57 110 78h211v-35q-236 -43 -368 -190h-39z" />
<glyph unicode="&#xe2;" horiz-adv-x="901" d="M66 256q0 -127 73.5 -197.5t198.5 -70.5q72 0 164 39q104 45 127 100q8 -84 45 -127h194q-55 57 -55 236v577q0 135 -98 209q-88 68 -228 68q-143 0 -254 -97v-145q74 145 228 145q78 0 127 -37q57 -43 57 -116q0 -109 -170 -189q-221 -104 -285 -153q-125 -98 -124 -242 zM248 279q0 102 84 184q33 31 154.5 103.5t134.5 92.5v-479q-86 -92 -203 -92q-170 0 -170 191zM260 1171q80 174 219 246q139 -74 219 -246h-30q-101 109 -191 132q-86 -27 -188 -132h-29z" />
<glyph unicode="&#xe3;" horiz-adv-x="899" d="M66 256q0 -127 73.5 -197.5t198.5 -70.5q72 0 164 39q104 45 127 100q8 -84 45 -127h194q-55 57 -55 236v577q0 135 -98 209q-88 68 -228 68q-143 0 -254 -97v-145q74 145 228 145q78 0 127 -37q57 -43 57 -116q0 -109 -170 -189q-221 -104 -285 -153q-125 -98 -124 -242 zM219 1303q82 82 191 81q39 0 115.5 -23.5t115.5 -23.5q70 0 133 41l19 -26q-84 -96 -199 -97q-41 0 -80 13q-129 41 -158 41q-55 0 -120 -33zM248 279q0 102 84 184q33 31 154.5 103.5t134.5 92.5v-479q-86 -92 -203 -92q-170 0 -170 191z" />
<glyph unicode="&#xe4;" horiz-adv-x="901" d="M66 256q0 143 124 242q63 49 285 153q170 80 170 189q0 74 -57 116q-49 37 -127 37q-154 0 -228 -145v145q111 96 254 97q139 0 228 -68q98 -74 98 -209v-577q0 -178 55 -236h-194q-37 43 -45 127q-23 -55 -127 -100q-92 -39 -164 -39q-125 0 -198.5 70.5t-73.5 197.5z M213 1309q0 45 33 76.5t78 31.5q47 0 79.5 -30.5t32.5 -77.5t-32.5 -80t-79.5 -33t-79 33t-32 80zM248 279q0 -190 170 -191q117 0 203 92v479q-12 -20 -134 -92.5t-155 -103.5q-84 -82 -84 -184zM575 1309q0 47 32 77.5t79 30.5t80 -30.5t33 -77.5q0 -49 -32 -81t-81 -32 q-47 0 -79 33t-32 80z" />
<glyph unicode="&#xe5;" horiz-adv-x="901" d="M66 256q0 -127 73.5 -197.5t198.5 -70.5q72 0 164 39q104 45 127 100q8 -84 45 -127h194q-55 57 -55 236v577q0 135 -98 209q-88 68 -228 68q-143 0 -254 -97v-145q74 145 228 145q78 0 127 -37q57 -43 57 -116q0 -109 -170 -189q-221 -104 -285 -153q-125 -98 -124 -242 zM248 279q0 102 84 184q33 31 154.5 103.5t134.5 92.5v-479q-86 -92 -203 -92q-170 0 -170 191zM350 1315q0 53 38 87t91 34t90 -34t37 -87q0 -51 -38 -85t-89 -34q-53 0 -91 34t-38 85zM414 1315q0 -88 63 -88q66 0 66 88q0 92 -66 92q-63 0 -63 -92z" />
<glyph unicode="&#xe6;" horiz-adv-x="1458" d="M66 250q0 135 124 242q80 55 291 155q162 76 162 184q0 156 -182 156q-154 0 -230 -139v139q111 96 256 96q195 0 287 -125q115 131 295 132q129 0 221 -64q106 -72 107 -195q0 -100 -92 -200q-59 -63 -217 -151.5t-216 -155.5q96 -248 297 -248q131 0 228 125v-135 q-106 -84 -297 -86q-236 -4 -381 204q-41 -45 -66 -61q-172 -143 -315 -143q-127 0 -199.5 71.5t-72.5 198.5zM246 270q0 -190 170 -190q127 0 207 90v481q-16 -20 -121 -80q-256 -143 -256 -301zM836 551q0 -70 12 -131q152 121 246 176q127 113 127 252q0 166 -152 166 q-119 0 -186 -183q-47 -126 -47 -280z" />
<glyph unicode="&#xe7;" horiz-adv-x="917" d="M90 506q0 236 123 399q135 176 365 185q129 4 274 -54l2 -137q-14 37 -63 72q-63 45 -150 45q-164 0 -254 -160q-74 -131 -74 -324q0 -182 82 -307q94 -145 269 -145q113 0 184 94l4 -137q-66 -29 -168 -41q-33 -4 -55 -6l-60 -80q45 6 62 6q166 0 166 -147 q0 -182 -234 -183q-90 0 -192 39l37 82q76 -31 127 -31q143 0 137 86q-4 76 -123 76q-20 0 -76 -14l-35 41l94 127q-178 14 -301 143q-141 150 -141 371z" />
<glyph unicode="&#xe8;" horiz-adv-x="923" d="M88 520q0 225 107 385q123 184 337 185q129 0 222 -62q109 -70 108 -192q0 -106 -90 -201q-61 -63 -223 -154q-154 -83 -209 -151q92 -248 295 -248q133 0 227 125l-2 -135q-63 -49 -186 -72q-66 -12 -109 -12q-215 -2 -350 159q-127 152 -127 373zM299 553 q0 -70 14 -127q37 41 119 90q96 59 125 84q51 43 82 98q43 82 43 152t-38.5 118t-106.5 48q-119 0 -187 -182q-51 -137 -51 -281zM334 1378v37h213q84 -51 108 -80q72 -82 86 -145h-34q-135 145 -373 188z" />
<glyph unicode="&#xe9;" horiz-adv-x="923" d="M88 520q0 225 107 385q123 184 337 185q129 0 222 -62q109 -70 108 -192q0 -106 -90 -201q-61 -63 -223 -154q-154 -83 -209 -151q92 -248 295 -248q133 0 227 125l-2 -135q-63 -49 -186 -72q-66 -12 -109 -12q-215 -2 -350 159q-127 152 -127 373zM299 553 q0 -70 14 -127q37 41 119 90q96 59 125 84q51 43 82 98q43 82 43 152t-38.5 118t-106.5 48q-119 0 -187 -182q-51 -137 -51 -281zM303 1190q16 74 88 145q55 57 109 80h209l2 -37q-236 -43 -371 -188h-37z" />
<glyph unicode="&#xea;" horiz-adv-x="923" d="M88 520q0 -221 127 -373q135 -162 350 -159q43 0 109 12q123 23 186 72l2 135q-94 -125 -227 -125q-203 0 -295 248q55 68 209 151q162 90 223 154q90 94 90 201q0 123 -108 192q-92 61 -222 62q-215 0 -337 -185q-106 -160 -107 -385zM274 1174q80 176 222 247 q143 -84 219 -247h-31q-104 110 -188 133q-88 -29 -191 -133h-31zM299 553q0 143 51 281q68 182 187 182q68 0 106.5 -48t38.5 -118t-43 -152q-31 -55 -82 -98q-29 -25 -125 -84q-82 -49 -119 -90q-14 57 -14 127z" />
<glyph unicode="&#xeb;" horiz-adv-x="923" d="M88 520q0 225 107 385q123 184 337 185q129 0 222 -62q109 -70 108 -192q0 -106 -90 -201q-61 -63 -223 -154q-154 -83 -209 -151q92 -248 295 -248q133 0 227 125l-2 -135q-63 -49 -186 -72q-66 -12 -109 -12q-215 -2 -350 159q-127 152 -127 373zM227 1309 q0 45 34 76.5t79 31.5t79 -31.5t34 -76.5q0 -47 -33 -80t-80 -33t-80 33t-33 80zM299 553q0 -70 14 -127q37 41 119 90q96 59 125 84q51 43 82 98q43 82 43 152t-38.5 118t-106.5 48q-119 0 -187 -182q-51 -137 -51 -281zM590 1309q0 45 34.5 76.5t80.5 31.5 q45 0 77.5 -31.5t32.5 -76.5q0 -47 -31.5 -80t-78.5 -33t-81 33t-34 80z" />
<glyph unicode="&#xec;" horiz-adv-x="497" d="M66 1378v35h208q82 -51 107 -80q70 -80 88 -143h-37q-137 147 -366 188zM174 236v841h193v-841q0 -176 53 -236h-193q-53 53 -53 236z" />
<glyph unicode="&#xed;" horiz-adv-x="497" d="M41 1190q10 47 49 98q72 96 148 125h208v-35q-233 -43 -368 -188h-37zM166 236v841h192v-841q0 -176 54 -236h-193q-53 53 -53 236z" />
<glyph unicode="&#xee;" horiz-adv-x="487" d="M31 1171q80 170 217 242q135 -72 217 -242h-31q-110 111 -186 127q-86 -27 -187 -127h-30zM160 236q0 -182 53 -236h193q-54 60 -54 236v841h-192v-841z" />
<glyph unicode="&#xef;" horiz-adv-x="661" d="M41 1305q0 45 32.5 76.5t78.5 31.5q47 0 79.5 -30.5t32.5 -77.5t-32.5 -78t-79.5 -31t-79 30.5t-32 78.5zM229 236v841h193v-841q0 -176 53 -236h-192q-53 53 -54 236zM399 1305q0 47 33 77.5t80 30.5q45 0 78 -31.5t33 -76.5q0 -47 -32 -78t-79 -31t-80 30.5t-33 78.5z " />
<glyph unicode="&#xf1;" horiz-adv-x="1048" d="M150 236q0 -178 53 -236h196q-53 55 -53 236v571q27 61 87.5 102t125.5 41q184 0 184 -170v-544q0 -4 11 -97q12 -106 47 -139h188q-53 56 -53 236v571q0 123 -80 203t-203 80q-133 0 -231 -89q-59 -53 -80 -106v182h-192v-841zM283 1305q80 80 188 79q39 0 116 -23.5 t115 -23.5q70 0 134 41l18 -26q-82 -96 -199 -97q-37 0 -80 15q-123 41 -155 41q-57 0 -123 -33z" />
<glyph unicode="&#xf2;" d="M61 537q0 213 127 376q138 177 347 177q227 0 356 -168q119 -152 119 -385q0 -215 -127 -375q-139 -174 -348 -174q-231 0 -359 162q-115 150 -115 387zM268 547q0 -150 58 -287q73 -180 202 -180q135 0 209 176q59 137 60 291q0 238 -95 364q-76 102 -174 103 q-82 0 -149 -80q-111 -133 -111 -387zM338 1380v35h211q84 -49 108 -78q72 -84 88 -147h-36q-125 139 -371 190z" />
<glyph unicode="&#xf3;" d="M61 537q0 213 127 376q138 177 347 177q227 0 356 -168q119 -152 119 -385q0 -215 -127 -375q-139 -174 -348 -174q-231 0 -359 162q-115 150 -115 387zM268 547q0 -150 58 -287q73 -180 202 -180q135 0 209 176q59 137 60 291q0 238 -95 364q-76 102 -174 103 q-82 0 -149 -80q-111 -133 -111 -387zM283 1190q18 72 88 147q51 57 108 78h211v-35q-236 -43 -368 -190h-39z" />
<glyph unicode="&#xf4;" d="M61 537q0 -238 115 -387q127 -162 359 -162q209 0 348 174q127 160 127 375q0 233 -119 385q-129 168 -356 168q-209 0 -347 -177q-127 -164 -127 -376zM268 547q0 254 111 387q68 80 149 80q98 0 174 -103q94 -127 95 -364q0 -154 -60 -291q-74 -176 -209 -176 q-129 0 -202 180q-57 137 -58 287zM324 1171q78 174 219 246q135 -72 217 -246h-31q-102 109 -188 132q-86 -27 -189 -132h-28z" />
<glyph unicode="&#xf5;" d="M61 537q0 -238 115 -387q127 -162 359 -162q209 0 348 174q127 160 127 375q0 233 -119 385q-129 168 -356 168q-209 0 -347 -177q-127 -164 -127 -376zM268 547q0 254 111 387q68 80 149 80q98 0 174 -103q94 -127 95 -364q0 -154 -60 -291q-74 -176 -209 -176 q-129 0 -202 180q-57 137 -58 287zM270 1305q82 80 193 79q41 0 117.5 -23.5t117.5 -23.5q70 0 136 41l14 -26q-84 -96 -199 -97q-41 0 -80 13q-129 41 -159 41q-55 0 -121 -31z" />
<glyph unicode="&#xf6;" d="M61 537q0 213 127 376q138 177 347 177q227 0 356 -168q119 -152 119 -385q0 -215 -127 -375q-139 -174 -348 -174q-231 0 -359 162q-115 150 -115 387zM225 1307q0 47 33 78.5t80 31.5t80 -31.5t33 -78.5t-33 -79t-80 -32t-80 32t-33 79zM268 547q0 -150 58 -287 q73 -180 202 -180q135 0 209 176q59 137 60 291q0 238 -95 364q-76 102 -174 103q-82 0 -149 -80q-111 -133 -111 -387zM588 1307q0 47 33.5 78.5t80.5 31.5q45 0 79 -32.5t34 -77.5t-34 -78t-79 -33q-47 0 -80.5 32t-33.5 79z" />
<glyph unicode="&#xf7;" horiz-adv-x="1007" d="M90 598v107h842v-107h-842zM440 350q0 31 20.5 51.5t51.5 20.5q29 0 50.5 -20.5t21.5 -51.5t-21.5 -51t-50.5 -20q-31 0 -51.5 20t-20.5 51zM440 1001q0 29 20.5 50.5t51.5 21.5q29 0 50.5 -21.5t21.5 -50.5q0 -31 -21.5 -51t-50.5 -20q-31 0 -51.5 20t-20.5 51z" />
<glyph unicode="&#xf8;" horiz-adv-x="1038" d="M51 532q0 221 125 381q135 176 350 177q131 0 238 -62l39 49h137l-90 -121q152 -150 151 -424q0 -217 -127 -376q-135 -172 -348 -172q-152 0 -262 75l-35 -59h-137l86 135q-127 145 -127 397zM260 549q0 -137 33 -244l395 610q-76 96 -172 97q-141 0 -209 -176 q-47 -121 -47 -287zM348 190q76 -116 168 -116q135 0 213 182q59 139 59 293q0 145 -38 252z" />
<glyph unicode="&#xf9;" horiz-adv-x="1060" d="M158 289v788h192v-786q0 -78 52.5 -127t129.5 -49q63 0 129 47t82 106v809h193v-856q0 -160 53 -221h-188q-47 45 -53 184q-61 -176 -289 -196q-141 0 -221 79.5t-80 221.5zM336 1378v35h209q82 -49 106 -78q70 -82 86 -145h-35q-133 145 -366 188z" />
<glyph unicode="&#xfa;" horiz-adv-x="1060" d="M158 289v788h192v-786q0 -78 52.5 -127t129.5 -49q63 0 129 47t82 106v809h193v-856q0 -160 53 -221h-188q-47 45 -53 184q-61 -176 -289 -196q-141 0 -221 79.5t-80 221.5zM322 1190q10 41 49 98q63 92 147 125h209v-35q-236 -43 -369 -188h-36z" />
<glyph unicode="&#xfb;" horiz-adv-x="1060" d="M158 289q0 -141 79.5 -221t221.5 -80q227 20 289 196q6 -139 53 -184h188q-53 61 -53 221v856h-193v-809q-16 -59 -81.5 -106t-129.5 -47q-78 0 -130 49t-52 127v786h-192v-788zM324 1171q78 172 217 244q135 -72 217 -244h-31q-104 111 -186 129q-88 -27 -187 -129h-30z " />
<glyph unicode="&#xfc;" horiz-adv-x="1064" d="M160 289v788h192v-786q0 -78 52.5 -127t130.5 -49q63 0 128.5 47t81.5 106v809h193v-856q0 -160 53 -221h-188q-47 45 -53 184q-61 -176 -289 -196q-141 0 -221 79.5t-80 221.5zM258 1309q0 45 33 76.5t78 31.5q47 0 79.5 -30.5t32.5 -77.5t-32.5 -80t-79.5 -33t-79 33 t-32 80zM621 1309q0 47 31.5 77.5t78.5 30.5t80 -30.5t33 -77.5q0 -49 -32 -81t-81 -32q-47 0 -78.5 33t-31.5 80z" />
<glyph unicode="&#xfd;" horiz-adv-x="1144" d="M61 1077q70 -51 109 -223l127 -555q72 -311 276 -311q45 0 89 22l-56 -213q-45 -176 -117 -237h197q70 57 113 237l311 1280h-207q0 -70 -31 -196l-157 -648q-33 -135 -109 -135q-80 0 -129 219l-121 537q-6 25 -30 90q-39 98 -82 133h-183zM416 1190q74 178 159 213h246 v-29q-233 -43 -358 -184h-47z" />
<glyph unicode="&#xfe;" horiz-adv-x="1101" d="M147 -203v1663h191v-497q72 127 252 127q190 0 311 -172q109 -152 109 -351q0 -238 -109 -397q-125 -182 -350 -182q-162 0 -209 61v-252q2 -184 53 -237h-194q-33 37 -47 139q-6 45 -7 98zM342 190q62 -117 209 -133q135 0 201 187q47 127 47 295q0 459 -295 458 q-86 0 -162 -69v-738z" />
<glyph unicode="&#xff;" horiz-adv-x="1140" d="M63 1077h183q43 -35 82 -133q25 -66 30 -90l121 -537q49 -219 129 -219q76 0 109 135l157 648q31 127 31 196h207l-311 -1280q-43 -180 -113 -237h-196q72 61 116 237l56 213q-43 -23 -89 -22q-205 0 -276 311l-127 555q-39 172 -109 223zM311 1303q0 47 32 77.5t79 30.5 t78.5 -30.5t31.5 -77.5q0 -45 -32.5 -76t-77.5 -31t-78 30.5t-33 76.5zM668 1303q0 47 31.5 77.5t78.5 30.5q45 0 77 -31.5t32 -76.5q0 -43 -33 -75t-76 -32q-45 0 -77.5 30.5t-32.5 76.5z" />
<glyph unicode="&#x152;" horiz-adv-x="2101" d="M57 729q0 293 179 514q188 240 473 240q250 0 436 -193q-8 131 -55 174h542q338 0 385 -202q-76 92 -389 92h-287q10 -51 11 -113v-311h200q219 0 289 -156q-63 41 -323 41h-166v-579q0 -63 12 -121h424q209 0 262 84q0 -199 -221 -199h-627q-43 100 -47 160 q-178 -180 -446 -180q-303 0 -486 227q-166 213 -166 522zM279 727q0 -240 98 -422q121 -225 342 -225q217 0 336 227q94 180 94 420q0 236 -94 422q-123 233 -336 233q-221 0 -342 -231q-98 -182 -98 -424z" />
<glyph unicode="&#x153;" horiz-adv-x="1644" d="M61 532q0 215 129 379q139 178 349 179q236 0 370 -191q127 190 344 191q129 0 224 -64q106 -72 106 -195q0 -100 -92 -198q-57 -61 -221 -152q-154 -86 -213 -157q92 -244 297 -244q133 0 227 123v-135q-98 -82 -295 -82q-240 -2 -383 194q-145 -197 -364 -196 q-231 0 -361 161q-117 150 -117 387zM268 543q0 -150 58 -287q75 -180 206 -180q135 0 211 178q59 139 60 289q0 162 -55 293q-74 176 -216 176q-139 0 -210 -176q-53 -131 -54 -293zM1016 549q0 -70 12 -125q86 63 119 84q92 57 129 90q127 111 127 250q0 70 -39 119 t-107 49q-119 0 -188 -185q-53 -139 -53 -282z" />
<glyph unicode="&#x178;" horiz-adv-x="1189" d="M23 1462h188q74 -39 135 -223q154 -467 166 -506q41 -135 55 -164q25 -53 72 -53q51 0 74 62l241 661q33 90 33 168q0 37 -12 55h213q14 -18 14 -55q0 -72 -35 -168l-360 -1003q-66 -182 -139 -236h-211q47 35 96 139q37 78 43 97l66 192q-31 -27 -64 -27 q-106 0 -176 107q-35 57 -84 203l-176 530q-53 158 -139 221zM332 1667q0 47 30.5 77t77.5 30q45 0 77 -31t32 -76t-32 -75.5t-77 -30.5t-76.5 30.5t-31.5 75.5zM682 1667q0 45 31.5 76t77.5 31q45 0 76.5 -31t31.5 -76q0 -43 -32.5 -74.5t-75.5 -31.5q-45 0 -77 30.5 t-32 75.5z" />
<glyph unicode="&#x2000;" horiz-adv-x="900" />
<glyph unicode="&#x2001;" horiz-adv-x="1800" />
<glyph unicode="&#x2002;" horiz-adv-x="900" />
<glyph unicode="&#x2003;" horiz-adv-x="1800" />
<glyph unicode="&#x2004;" horiz-adv-x="600" />
<glyph unicode="&#x2005;" horiz-adv-x="450" />
<glyph unicode="&#x2006;" horiz-adv-x="300" />
<glyph unicode="&#x2007;" horiz-adv-x="300" />
<glyph unicode="&#x2008;" horiz-adv-x="225" />
<glyph unicode="&#x2009;" horiz-adv-x="360" />
<glyph unicode="&#x200a;" horiz-adv-x="100" />
<glyph unicode="&#x2010;" horiz-adv-x="655" d="M82 614v125h493v-125h-493z" />
<glyph unicode="&#x2011;" horiz-adv-x="655" d="M82 614v125h493v-125h-493z" />
<glyph unicode="&#x2012;" horiz-adv-x="655" d="M82 614v125h493v-125h-493z" />
<glyph unicode="&#x2013;" horiz-adv-x="1030" d="M152 614v88h729v-88h-729z" />
<glyph unicode="&#x2014;" horiz-adv-x="1030" d="M152 614v88h729v-88h-729z" />
<glyph unicode="&#x2018;" horiz-adv-x="397" d="M123 1380q0 37 29.5 59.5t66.5 22.5t66.5 -22.5t29.5 -59.5l-47 -436h-100q-39 373 -45 436z" />
<glyph unicode="&#x2019;" horiz-adv-x="397" d="M123 1380q0 37 29.5 59.5t66.5 22.5t66.5 -22.5t29.5 -59.5l-47 -436h-100q-39 373 -45 436z" />
<glyph unicode="&#x201c;" horiz-adv-x="690" d="M92 1380q0 37 30 59.5t66 22.5q37 0 67 -23.5t30 -58.5l-47 -436h-101q-39 373 -45 436zM410 1380q0 37 29.5 59.5t66.5 22.5t66.5 -23.5t29.5 -58.5l-47 -436h-100q-39 373 -45 436z" />
<glyph unicode="&#x201d;" horiz-adv-x="690" d="M92 1380q0 37 30 59.5t66 22.5q37 0 67 -23.5t30 -58.5l-47 -436h-101q-39 373 -45 436zM410 1380q0 37 29.5 59.5t66.5 22.5t66.5 -23.5t29.5 -58.5l-47 -436h-100q-39 373 -45 436z" />
<glyph unicode="&#x2022;" horiz-adv-x="681" d="M31 768q0 131 91 223t220 92t219 -93t90 -224q0 -127 -92 -219t-219 -92t-218 92t-91 221z" />
<glyph unicode="&#x2026;" horiz-adv-x="2068" d="M248 92q0 49 33.5 81t83.5 32q47 0 80.5 -33t33.5 -80t-33.5 -81t-80.5 -34q-49 0 -83 33t-34 82zM938 92q0 49 34 81t83 32q47 0 80.5 -33t33.5 -80t-33.5 -81t-80.5 -34q-49 0 -83 33t-34 82zM1616 92q0 49 33.5 81t83.5 32q47 0 80.5 -33t33.5 -80t-33.5 -81 t-80.5 -34q-49 0 -83 33t-34 82z" />
<glyph unicode="&#x202f;" horiz-adv-x="360" />
<glyph unicode="&#x205f;" horiz-adv-x="450" />
<glyph unicode="&#x20ac;" horiz-adv-x="1327" d="M90 530v105h127v58.5v64.5h-127v104h139q53 272 235.5 446.5t444.5 174.5q244 0 336 -70v-168q-88 156 -284 156q-203 0 -343 -168q-127 -145 -161 -371h671l-41 -104h-643q-6 -35 -6 -53q0 -35 6 -70h684l-41 -105h-626q47 -209 192.5 -327.5t325.5 -118.5 q178 0 266 145v-180q-92 -70 -342 -69q-250 0 -435 153.5t-232 396.5h-146z" />
<glyph unicode="&#x2122;" horiz-adv-x="837" d="M16 1462q8 -20 25 -26q31 -16 102 -17q6 -20 7 -51v-401h83v383q0 66 -2 69h48q20 0 34 -2q40 -2 56 -12q-10 37 -56 49q-27 8 -94 8h-203zM395 1462h105l104 -362q2 23 19 78l86 284h108v-495h-78v426l-98 -322q-12 -41 -12 -78q0 -14 6 -26h-64l-127 428q2 -23 2 -54 v-18v-104q0 -264 0 -252h-47v419q0 27 -4 76z" />
<glyph unicode="&#x25fc;" horiz-adv-x="1075" d="M0 0v1075h1075v-1075h-1075z" />
</font>
</defs>
</svg>
